<svg width="36" height="36" viewBox="0 0 36 36" fill="none" xmlns="http://www.w3.org/2000/svg">
<rect width="36" height="36" rx="4" fill="#FCFCFC"/>
<path d="M24.2 11.5C23.3 11.5 22.7 12 22.5 12.7H10.6C10.2 12.7 10 12.9 10 13.3C10 13.7 10.2 13.9 10.6 13.9H22.4C22.6 14.6 23.4 15.1 24.1 15.1C25.1 15.1 25.9 14.3 25.9 13.3C26 12.3 25.1 11.5 24.2 11.5ZM24.2 13.9C23.8 13.9 23.6 13.7 23.6 13.3C23.6 12.9 23.8 12.7 24.2 12.7C24.6 12.7 24.8 12.9 24.8 13.3C24.8 13.7 24.5 13.9 24.2 13.9Z" fill="#575757"/>
<path d="M24.2 17.4H17.3C17 16.7 16.4 16.2 15.5 16.2C14.6 16.2 14 16.7 13.8 17.4H10.6C10.2 17.4 10 17.6 10 18C10 18.4 10.2 18.6 10.6 18.6H13.8C14 19.3 14.8 19.8 15.5 19.8C16.2 19.8 17 19.3 17.3 18.6H24.2C24.6 18.6 24.8 18.4 24.8 18C24.8 17.6 24.5 17.4 24.2 17.4ZM15.5 18.6C15.2 18.6 14.9 18.4 14.9 18C14.9 17.6 15.1 17.4 15.5 17.4C15.9 17.4 16.1 17.6 16.1 18C16.1 18.4 15.9 18.6 15.5 18.6Z" fill="#575757"/>
<path d="M24.2 22.1H22.2C22 21.4 21.3 20.9 20.5 20.9C19.6 20.9 19 21.4 18.8 22.1H10.6C10.2 22.1 10 22.3 10 22.7C10 23.1 10.2 23.3 10.6 23.3H18.7C18.9 24 19.7 24.5 20.4 24.5C21.1 24.5 21.9 24 22.1 23.3H24.1C24.5 23.3 24.7 23.1 24.7 22.7C24.8 22.4 24.5 22.1 24.2 22.1ZM20.5 23.3C20.1 23.3 19.9 23.1 19.9 22.7C19.9 22.3 20.1 22.1 20.5 22.1C20.9 22.1 21.1 22.3 21.1 22.7C21.1 23.1 20.8 23.3 20.5 23.3Z" fill="#575757"/>
</svg>
